<svg width="19" height="15" viewBox="0 0 19 15" fill="none" xmlns="http://www.w3.org/2000/svg">
    <path d="M1 6.83333H17.6667M1 6.83333V1.5C1 1.36739 1.05268 1.24021 1.14645 1.14645C1.24021 1.05268 1.36739 1 1.5 1H6.64833C6.76751 0.999991 6.88276 1.04255 6.97333 1.12L9.61 3.38C9.70057 3.45745 9.81583 3.50001 9.935 3.5H17.1667C17.2323 3.5 17.2973 3.51293 17.358 3.53806C17.4187 3.56319 17.4738 3.60002 17.5202 3.64645C17.5667 3.69288 17.6035 3.748 17.6286 3.80866C17.6537 3.86932 17.6667 3.93434 17.6667 4V6.83333H1ZM1 6.83333V13.8333C1 13.9659 1.05268 14.0931 1.14645 14.1869C1.24021 14.2807 1.36739 14.3333 1.5 14.3333H17.1667C17.2993 14.3333 17.4265 14.2807 17.5202 14.1869C17.614 14.0931 17.6667 13.9659 17.6667 13.8333V6.83333H1Z"
          stroke="#666276" stroke-linecap="round" stroke-linejoin="round"/>
</svg>
