<svg width="14" height="14" viewBox="0 0 14 14" fill="none" xmlns="http://www.w3.org/2000/svg">
    <path d="M9.75 9.75L12.6667 12.6667L9.75 9.75ZM1 6C1 6.65661 1.12933 7.30679 1.3806 7.91342C1.63188 8.52005 2.00017 9.07124 2.46447 9.53553C2.92876 9.99983 3.47996 10.3681 4.08658 10.6194C4.69321 10.8707 5.34339 11 6 11C6.65661 11 7.30679 10.8707 7.91342 10.6194C8.52005 10.3681 9.07124 9.99983 9.53553 9.53553C9.99983 9.07124 10.3681 8.52005 10.6194 7.91342C10.8707 7.30679 11 6.65661 11 6C11 4.67392 10.4732 3.40215 9.53553 2.46447C8.59785 1.52678 7.32608 1 6 1C4.67392 1 3.40215 1.52678 2.46447 2.46447C1.52678 3.40215 1 4.67392 1 6V6Z"
          stroke="#666276" stroke-linecap="round" stroke-linejoin="round"/>
</svg>
